<svg width="325" height="194" viewBox="0 0 325 194" fill="none" xmlns="http://www.w3.org/2000/svg">
<path opacity="0.33" d="M11.6128 193.622C11.6128 193.622 -23.9477 105.044 46.1389 105.044C83.1793 105.044 67.9206 80.7476 93.0932 52.6152C118.28 24.4829 206.327 2.01151 225.077 56.3221C243.812 110.633 197.505 151.869 242.261 144.8C296.04 136.294 317.29 193.622 317.29 193.622H11.6128Z" fill="#91A5FF"/>
<path d="M287.031 182.788C283.238 180.015 275.494 181.883 269.775 183.895C268.927 182.688 267.879 181.452 266.629 180.245C278.942 172.314 295.953 155.389 286.93 153.966C279.1 152.716 268.525 167.946 262.864 177.214C257.002 173.262 248.008 170.36 234.272 171.366C198.64 173.981 170.795 150.992 150.277 158.665C133.955 164.757 119.013 168.176 104.587 167.012C105.205 156.481 105.349 135.791 97.0731 133.65C88.6822 131.466 96.915 154.958 101.484 166.682C100.406 166.538 99.3432 166.38 98.2656 166.193C95.3058 160.346 90.4207 152.702 85.0471 152.443C79.9896 152.199 86.2253 159.081 92.3604 164.9C74.731 161.193 53.8113 175.533 53.4665 192.487H273.626C273.626 192.487 273.238 190.015 271.514 186.754C280.048 186.567 291.155 185.806 287.031 182.788Z" fill="#A8E28A"/>
<path d="M101.513 179.369H43.4952V192.472H101.513V179.369Z" fill="#6585FC"/>
<path d="M83.6247 179.369H25.6071V192.472H83.6247V179.369Z" fill="#91A5FF"/>
<path d="M124.346 192.473H167.55V132.085H124.346V192.473Z" fill="#6234E0"/>
<path d="M111.035 192.473H154.24V132.085H111.035V192.473Z" fill="#7D4EE6"/>
<path d="M154.229 132.084L167.562 141.15V132.084H154.229Z" fill="#6234E0"/>
<path d="M192.778 46.825C192.117 46.7244 190.091 48.5779 190.091 48.5779C185.795 49.0807 179.516 50.2158 177.246 50.6468C175.637 50.9486 171.326 49.483 167.117 47.802C162.102 45.7905 157.231 43.4773 157.231 43.4773C154.458 43.3336 151.298 48.4054 156.93 51.6382C157.792 52.1267 161.025 52.9744 164.746 53.7359C169.89 54.7992 175.953 55.7187 178.022 55.3882C180.421 55.0147 187.217 52.529 191.255 50.6325C191.255 50.6325 191.255 50.6325 191.269 50.6325C191.283 50.6325 191.298 50.6181 191.312 50.6181C191.556 50.5032 192.548 50.0578 193.209 50.1009C193.97 50.144 195.651 48.7646 195.709 48.3911C195.766 48.0031 193.453 46.9256 192.778 46.825Z" fill="#ED975D"/>
<path d="M187.533 110.719L185.163 111.193C185.163 111.193 174.329 99.0236 172.663 93.9086C171.772 91.1787 166.053 89.9861 160.076 88.4488C154.875 87.0982 149.487 85.489 146.901 82.3281C141.369 75.532 150.378 67.1987 150.378 67.1987C150.378 67.1987 159.961 72.9027 168.237 78.7792C174.013 82.8884 179.157 87.0982 179.933 89.512C181.815 95.3885 185.809 106.552 187.533 110.719Z" fill="#2B478B"/>
<path d="M184.372 114.728H185.709C186.154 114.656 186.485 114.527 186.944 114.469C187.634 114.383 187.964 114.656 188.022 114.728C188.036 114.742 188.036 114.742 188.036 114.742H193.697C193.841 114.541 193.697 114.067 193.568 113.722C193.482 113.492 193.281 113.305 193.036 113.233C192.433 113.061 191.255 112.903 190.177 111.926C189.574 111.38 187.232 109.9 187.232 109.9H187.217C187.16 109.9 186.916 109.972 185.867 110.877C185.321 111.337 184.387 110.231 184.387 110.231C184.387 110.231 184.214 110.374 184.085 110.647C183.984 110.863 183.898 111.15 183.97 111.509C184.056 112.012 183.783 112.96 183.568 113.607C183.439 113.995 183.324 114.268 183.324 114.268C183.324 114.268 183.223 114.584 184.372 114.728Z" fill="#233862"/>
<path d="M168.252 78.7792L160.091 88.4488C154.889 87.0982 149.502 85.489 146.915 82.3281C141.384 75.532 150.392 67.1987 150.392 67.1987C150.392 67.1987 159.976 72.8884 168.252 78.7792Z" fill="#1E3D70"/>
<path d="M160.823 73.7217C160.823 73.7217 160.162 75.7906 159.099 78.9228C157.749 82.874 155.723 88.4919 153.539 93.7074C153.065 94.8568 152.562 95.9775 152.073 97.0695C150.249 101.078 148.395 104.526 146.743 106.265C143.797 109.412 136.628 129.598 136.628 129.598L134.846 129.11C134.846 129.11 132.361 111.868 141.183 102.055C141.283 101.955 141.355 101.825 141.355 101.696C141.47 100.245 141.887 93.7361 142.806 87.1413C143.036 85.5177 143.28 83.9085 143.568 82.3424C143.582 82.2418 143.611 82.1413 143.625 82.0407C144.961 74.8567 146.254 71.6671 147.907 70.0579L160.105 73.5349L160.823 73.7217Z" fill="#2B478B"/>
<path d="M134.659 132.07H135.996C136.441 131.998 136.772 131.869 137.231 131.811C137.921 131.725 138.251 131.998 138.309 132.07C138.323 132.084 138.323 132.084 138.323 132.084H143.984C144.128 131.883 143.984 131.409 143.855 131.064C143.769 130.834 143.568 130.647 143.323 130.575C142.72 130.403 141.542 130.245 140.464 129.268C139.861 128.722 137.519 127.242 137.519 127.242H137.504C137.447 127.242 137.203 127.314 136.154 128.219C135.608 128.679 134.674 127.573 134.674 127.573C134.674 127.573 134.501 127.716 134.372 127.989C134.272 128.205 134.185 128.492 134.257 128.851C134.343 129.354 134.07 130.302 133.855 130.949C133.726 131.337 133.611 131.61 133.611 131.61C133.611 131.61 133.51 131.926 134.659 132.07Z" fill="#233862"/>
<path d="M137.274 50.2589C137.274 50.2589 135.234 55.2446 132.878 60.1009C130.895 64.1814 128.697 68.1757 127.303 69.0234C125.335 70.2303 119.918 73.6068 116.412 76.1355C116.412 76.1355 113.668 76.1212 113.251 76.6384C112.82 77.17 111.843 79.5263 112.131 79.7562C112.418 80.0005 114.602 79.8855 115.119 79.3396C115.579 78.8654 116.613 78.5206 116.858 78.4487C116.872 78.4487 116.886 78.4344 116.901 78.4344H116.915C121.182 77.1269 127.878 74.3826 129.904 73.0464C131.642 71.897 135.522 67.1269 138.596 62.8883C140.838 59.8136 142.662 57.0118 142.964 56.0779C144.976 49.9141 139.228 48.2905 137.274 50.2589Z" fill="#FFB27D"/>
<path d="M147.935 30.6898C147.691 30.3306 147.447 30.0289 147.203 29.7415C147.504 29.7415 147.835 29.7128 148.108 29.6122C148.826 29.3105 149.157 27.0404 149.042 26.3651C148.941 25.6898 147.935 23.7358 146.714 23.549C145.493 23.3478 144.214 24.7128 144.214 24.7128C144.444 23.7358 146.513 23.161 146.513 23.161C142.231 23.9513 142.461 26.7961 142.49 27.0691C138.582 25.6754 136.283 33.0462 136.283 33.0462L146.412 39.0232C146.412 39.0232 146.441 37.3996 147.404 37.5002C148.927 37.6582 150.177 33.9513 147.935 30.6898Z" fill="#2C3A64"/>
<path d="M148.582 46.1497C146.254 47.2417 143.165 45.6612 143.18 45.6468C143.381 45.4457 143.309 44.8566 143.122 44.0663C142.935 43.2474 142.504 42.141 141.714 40.8048C141.542 40.5175 141.384 40.2445 141.183 39.9428L141.456 39.8422L145.967 38.0318C145.967 38.0318 146.7 39.3393 147.461 40.5462C148.108 41.5376 148.783 42.4428 149.085 42.414C149.114 42.3997 152.102 44.4543 148.582 46.1497Z" fill="#FFB27D"/>
<path d="M145.981 38.4916C145.866 40.1008 145.32 43.0031 143.137 44.0807C142.95 43.2617 142.519 42.1554 141.728 40.8192L145.981 38.4916Z" fill="#ED975D"/>
<path d="M141.456 42.6583C141.456 42.6583 147.332 40.3451 145.838 36.6956C144.343 33.0606 144.085 30.3019 140.263 31.6238C136.441 32.9456 136.297 34.641 136.499 35.9772C136.714 37.3135 139.889 43.1612 141.456 42.6583Z" fill="#FFB27D"/>
<path d="M143.654 35.8623C146.369 35.4743 147.16 34.3824 147.16 34.3824C147.16 34.3824 144.66 33.664 143.194 31.2214C143.194 31.2214 140.148 30.187 137.878 31.9111C137.734 32.0835 137.648 32.299 137.591 32.5433C137.073 32.3709 136.297 32.414 135.838 33.8795C135.162 36.0778 137.562 38.4916 137.562 38.4916C138.151 38.3336 137.49 36.3652 137.389 35.3163C137.318 34.5404 137.734 33.5634 137.964 33.0893C138.251 33.4628 141.111 37.0692 144.616 37.2129C144.616 37.2129 142.763 36.5663 141.082 35.3163C141.93 35.733 142.82 35.9772 143.654 35.8623Z" fill="#2C3A64"/>
<path d="M159.789 53.6641C159.746 53.4917 159.688 53.3049 159.631 53.1181C160.507 51.4515 160.938 49.9428 161.111 48.6641C161.513 45.9773 160.823 44.3106 160.823 44.3106C160.823 44.3106 156.743 42.1411 154.947 41.8681C154.933 41.8681 154.933 41.8681 154.918 41.8681C154.904 41.8681 154.875 41.8681 154.846 41.8681C153.022 41.6238 149.085 42.4141 149.085 42.4141C149.085 42.4141 149.846 44.4399 147.706 45.7905C145.565 47.1411 143.28 45.4457 143.28 45.4457C143.208 45.4888 143.137 45.5463 143.065 45.6037C143.065 45.6037 137.432 49.325 136.915 50.1727C136.412 51.0204 134.243 55.2302 134.243 55.2302C134.243 55.2302 134.932 58.7504 142.547 59.0521C143.18 60.5751 143.654 62.055 143.812 63.2906C144.415 68.0895 143.711 71.8682 144.415 74.67C145.119 77.4717 157.835 75.8769 160.134 75.3309C162.433 74.7849 161.915 72.328 162.088 69.9429C162.318 66.9401 160.536 56.3078 159.789 53.6641Z" fill="#91A5FF"/>
<path d="M161.111 48.6641C160.924 49.9428 160.493 51.4514 159.617 53.1325C159.415 52.256 158.596 49.0233 157.289 47.5721C157.289 47.5721 159.502 47.7733 161.111 48.6641Z" fill="#6585FC"/>
<path d="M109.358 80.101C109.358 80.101 111.728 77.2275 112.231 76.897C112.734 76.5522 114.976 75.9631 115.105 76.078C115.234 76.193 115.234 76.3654 114.961 76.6096C114.688 76.8539 113.625 77.4717 113.783 77.5436C113.941 77.6154 117.131 76.0206 117.59 76.5522C118.05 77.0838 117.332 79.2964 116.096 80.3453C114.861 81.3941 111.197 81.8539 110.967 81.9976C109.013 83.262 109.358 80.101 109.358 80.101Z" fill="#ED975D"/>
<path d="M67.6764 73.4775C67.6764 73.4775 71.0816 77.5148 75.4063 75.8194C75.4063 75.8194 76.3402 73.5637 76.3546 71.897C76.3546 71.6958 76.3546 71.4947 76.3546 71.3079C76.3833 69.4401 76.4408 68.3912 76.4408 68.3912C76.2397 68.305 69.8172 65.6757 69.8316 65.8912C69.9322 70.9487 67.6764 73.4775 67.6764 73.4775Z" fill="#FFB27D"/>
<path d="M70.4782 67.0981C71.096 68.2475 73.2224 70.4889 76.369 71.3079C76.3977 69.44 76.4552 68.3912 76.4552 68.3912C76.2684 68.3481 70.2914 66.7676 70.4782 67.0981Z" fill="#ED975D"/>
<path d="M77.7914 68.2044C77.7914 68.2044 70.5643 69.8998 69.573 65.3883C68.5816 60.8768 66.9867 58.0463 71.5557 56.7819C76.1247 55.5032 77.4035 57.0262 78.0931 58.463C78.8115 59.871 79.6448 67.644 77.7914 68.2044Z" fill="#FFB27D"/>
<path d="M69.8316 66.6096C69.731 66.667 68.1793 67.1555 65.2339 61.2791C64.7741 60.3595 64.458 58.3624 65.5356 56.6095C66.6132 54.8566 70.435 53.4629 73.6103 52.8595C76.7856 52.256 77.5471 54.0377 78.2943 55.8336C79.0845 57.7158 81.3403 59.2676 81.3403 59.2676C78.6104 60.7906 75.3057 58.6066 74.1707 58.9658C73.0356 59.325 72.619 61.121 72.5328 61.6957C72.4465 62.2705 72.3172 62.759 70.8804 62.2417C69.4437 61.7245 70.2339 64.282 70.4638 64.7705C70.4638 64.7848 70.6506 66.0923 69.8316 66.6096Z" fill="#A9453D"/>
<path d="M51.2108 179.369H46.8286C45.909 179.369 44.8889 178.435 44.6303 176.739C44.3717 175.03 42.4895 174.11 42.0872 172.716C41.6849 171.323 43.7682 169.354 43.7682 169.354L44.113 168.895L44.4722 168.42L47.9349 169.239C47.9349 169.239 48.0211 170.073 48.0786 171.136C48.1217 171.912 48.136 172.788 48.0929 173.579C47.9924 175.432 48.6102 177.444 50.2338 177.803C51.8861 178.176 51.2108 179.369 51.2108 179.369Z" fill="#2C3A64"/>
<path d="M81.6707 179.412H70.0758C69.9609 179.383 69.8747 179.369 69.8316 179.34C69.0557 178.938 69.2999 175.892 69.3862 174.944C69.4005 174.771 69.4149 174.671 69.4149 174.671C69.4149 174.671 73.4954 171.308 74.0557 173.88C74.0701 173.966 74.0988 174.038 74.1132 174.11C74.8172 176.51 77.9925 177.602 79.8173 177.918C81.2109 178.162 81.5845 178.995 81.6707 179.412Z" fill="#2C3A64"/>
<path d="M79.3288 112.357C79.3288 112.357 78.711 120.087 77.9782 129.369C76.9868 141.984 75.7943 157.487 75.6793 160.418C75.4782 165.518 74.6592 173.665 74.6592 173.665C74.6592 173.665 72.7196 175.604 68.8546 174.785C68.8546 174.785 65.4063 163.147 64.4149 150.82C64.4005 150.619 64.3862 150.418 64.3718 150.216C63.4523 137.673 62.0298 111.279 62.0298 111.279L79.3288 112.357Z" fill="#2B478B"/>
<path d="M79.3288 112.357C79.3288 112.357 78.711 120.087 77.9782 129.369L64.4149 150.834C64.4005 150.633 64.3862 150.432 64.3718 150.231C63.4523 137.688 62.0298 111.294 62.0298 111.294L79.3288 112.357Z" fill="#1E3D70"/>
<path d="M76.5127 113.277C76.5127 113.277 65.3488 141.265 58.0068 154.412C50.6648 167.558 48.3803 171.237 48.3803 171.237C48.3803 171.237 44.1705 169.556 43.797 168.406C43.797 168.406 46.5987 143.018 51.5125 136.825C54.2855 133.334 57.547 122.831 57.7051 119.167C57.8631 115.504 58.6965 108.233 58.6965 108.233L76.5127 113.277Z" fill="#2B478B"/>
<path d="M50.9522 108.607C50.9522 108.607 50.6648 112.098 50.4493 112.644C50.2338 113.176 48.8257 114.843 48.6677 114.814C48.5096 114.785 48.4091 114.656 48.4953 114.325C48.5815 113.981 49.07 112.946 48.9119 112.96C48.7539 112.989 47.1447 115.935 46.4981 115.762C45.8516 115.59 45.2194 113.506 45.6073 112.026C45.9953 110.547 48.5815 108.219 48.6821 107.989C49.5154 105.978 50.9522 108.607 50.9522 108.607Z" fill="#ED975D"/>
<path d="M49.7452 109.498C50.9809 109.9 51.182 109.799 51.182 109.799C51.182 109.799 57.2022 98.8511 57.8056 97.8454C58.4091 96.8396 70.5787 85.5608 70.5787 85.5608L67.4608 73.9085C67.4608 73.9085 53.6246 91.8109 52.1447 94.3827C49.6734 98.6356 48.2366 108.492 48.2366 108.492C48.2366 108.492 48.7826 109.182 49.7452 109.498Z" fill="#6234E0"/>
<path d="M81.6851 90.1442C81.642 92.5437 81.4983 95.2305 81.3115 97.9604C81.2971 98.1184 81.2828 98.2908 81.2828 98.4489C81.1678 100.144 81.0385 101.84 80.8805 103.492C80.823 104.153 80.7512 104.814 80.6937 105.46L80.6793 105.547C80.6793 105.791 80.6506 106.049 80.6218 106.294C80.0184 112.486 79.3718 117.386 79.2569 117.458C79.1132 117.558 78.9552 117.601 78.7828 117.573C77.1592 117.371 72.3028 117.731 68.3373 116.869C64.9896 116.164 62.1016 114.828 59.0413 113.018C58.639 112.774 57.7051 112.141 57.7913 111.667C57.8631 111.15 58.0068 110.389 58.1792 109.44C58.7826 106.15 59.8171 100.475 60.1763 93.8368C60.2482 92.6011 60.3487 91.3799 60.4781 90.173C60.8229 87.0408 61.3689 84.081 62.1016 81.4373C63.4666 76.5378 65.4637 72.7878 67.9781 71.3223C68.3086 71.1355 70.0758 72.2562 71.685 73.305C73.1793 74.2677 74.7597 74.5263 76.2827 74.397L77.6333 75.8913C79.2713 77.7878 81.0098 80.3166 81.4839 83.9086C81.5127 84.1672 81.5558 84.4545 81.5701 84.7563C81.6994 86.2218 81.7282 88.0752 81.6851 90.1442Z" fill="#7D4EE6"/>
<path d="M81.6851 90.1442C81.642 92.5436 81.4983 95.2304 81.3115 97.9603C81.2972 98.1184 81.2828 98.2908 81.2828 98.4488C72.0011 92.6442 70.5644 82.012 70.5644 82.012C75.1334 82.2131 78.7541 83.262 81.5558 84.7562C81.6995 86.2218 81.7282 88.0752 81.6851 90.1442Z" fill="#6234E0"/>
<path d="M110.766 80.3884C110.292 79.0953 109.544 79.1815 109.544 79.1815C109.544 79.1815 95.7369 82.6154 94.5012 82.7734C93.2656 82.9171 79.6448 77.4573 79.6448 77.4573C79.6448 77.4573 74.2856 75.0579 71.7712 77.2418C69.5873 79.1527 69.4867 81.5666 70.004 83.6068C70.6074 86.0206 72.662 87.8166 75.1333 88.1327C80.6937 88.8367 91.7857 90.1729 94.0989 89.8425C99.2714 89.1241 110.996 82.3568 110.996 82.3568C110.996 82.3568 111.154 81.4085 110.766 80.3884Z" fill="#7D4EE6"/>
<path d="M246.858 105.69C246.858 105.69 248.769 107.472 248.396 108.736C248.022 110.001 246.298 110.834 246.054 112.386C245.81 113.937 244.89 114.771 244.042 114.771C243.195 114.771 240.034 114.771 240.034 114.771C240.034 114.771 239.416 113.679 240.91 113.363C242.404 113.032 242.965 111.222 242.879 109.541C242.778 107.86 243.022 105.618 243.022 105.618L246.198 104.871L246.858 105.69Z" fill="#2C3A64"/>
<path d="M222.965 114.541C222.763 114.641 222.088 114.699 221.154 114.756H212.074C212.102 114.483 212.318 113.521 213.798 113.291C215.479 113.018 218.381 112.041 219.028 109.9C219.057 109.828 219.071 109.756 219.085 109.684C219.603 107.4 223.338 110.388 223.338 110.388C223.338 110.388 223.353 110.475 223.367 110.633C223.453 111.48 223.669 114.196 222.965 114.541Z" fill="#2C3A64"/>
<path d="M214.243 53.2618C214.243 53.2618 214.818 60.3451 215.479 68.8653C216.384 80.4458 217.476 94.6557 217.591 97.3568C217.778 102.041 218.525 109.512 218.525 109.512C218.525 109.512 220.307 111.294 223.855 110.547C223.855 110.547 227.016 99.8712 227.922 88.5637C227.936 88.3769 227.95 88.1901 227.965 88.0033C228.812 76.4947 230.12 52.2704 230.12 52.2704L214.243 53.2618Z" fill="#35488B"/>
<path d="M214.243 53.2618C214.243 53.2618 214.818 60.3451 215.479 68.8653L227.922 88.5637C227.936 88.3769 227.95 88.1901 227.965 88.0033C228.812 76.4947 230.12 52.2704 230.12 52.2704L214.243 53.2618Z" fill="#2C3A64"/>
<path d="M216.83 54.0951C216.83 54.0951 227.074 79.7705 233.798 91.8396C240.537 103.909 242.634 107.271 242.634 107.271C242.634 107.271 246.499 105.733 246.844 104.67C246.844 104.67 244.272 81.3797 239.761 75.7044C237.218 72.5004 234.215 62.8739 234.085 59.4974C233.942 56.1353 233.18 49.4686 233.18 49.4686L216.83 54.0951Z" fill="#35488B"/>
<path d="M185.249 40.1726C185.249 40.1726 182.476 39.5404 182.002 39.5692C181.528 39.5979 179.904 40.2876 179.875 40.4169C179.847 40.5462 179.933 40.6611 180.22 40.6755C180.507 40.6899 181.427 40.5749 181.37 40.6899C181.312 40.8048 178.625 41.322 178.597 41.868C178.568 42.414 180.033 43.4054 181.269 43.4772C182.505 43.5491 184.947 42.0979 185.163 42.0835C186.93 41.9255 185.249 40.1726 185.249 40.1726Z" fill="#FFB27D"/>
<path d="M184.056 40.8767C183.654 39.6123 183.755 39.4111 183.755 39.4111C183.755 39.4111 195.019 33.3192 196.039 32.7013C197.074 32.0835 208.712 19.6984 208.712 19.6984L220.637 22.9743C220.637 22.9743 202.189 37.0261 199.545 38.5347C195.177 41.0347 185.062 42.4571 185.062 42.4571C185.062 42.4571 184.372 41.8824 184.056 40.8767Z" fill="#8966F7"/>
<path d="M212.318 13.6782C212.318 13.6782 208.137 21.0345 204.056 21.9972C204.056 21.9972 204.229 19.5259 205.22 17.8449C204.818 17.3707 204.459 16.9253 204.143 16.523C203.108 15.2012 202.62 14.3966 202.62 14.3966L203.999 10.6753L204.933 8.14655C205.378 8.96552 205.881 9.66954 206.398 10.2586C209.1 13.3334 212.318 13.6782 212.318 13.6782Z" fill="#FFB27D"/>
<path d="M206.427 10.2586C206.427 10.2586 206.93 13.9368 204.143 16.523C203.108 15.2012 202.62 14.3966 202.62 14.3966L203.999 10.6753C205.508 10.2155 206.427 10.2586 206.427 10.2586Z" fill="#ED975D"/>
<path d="M201.528 14.9426C201.528 14.9426 207.778 12.5144 206.197 8.64945C204.617 4.78449 204.373 1.86781 200.306 3.26149C196.255 4.65518 196.082 6.4368 196.298 7.85922C196.513 9.26727 199.861 15.4742 201.528 14.9426Z" fill="#FFB27D"/>
<path d="M233.784 51.4083C231.269 55.029 212.433 59.871 212.663 57.3566C212.749 56.394 212.864 54.7129 212.663 52.4141C212.62 51.8825 212.548 51.3077 212.462 50.7043C211.987 47.414 210.852 43.1755 208.309 38.2761C208.123 37.9025 207.921 37.5433 207.72 37.1697C206.671 35.2732 205.781 33.2617 205.105 31.3076C203.798 27.5432 203.281 23.9369 203.927 21.5662C203.927 21.5518 203.927 21.5375 203.941 21.5375C207.878 19.7127 209.401 12.6581 209.401 12.6581C209.401 12.6581 222.835 15.0719 230.35 32.9743C230.35 32.9599 235.968 48.2618 233.784 51.4083Z" fill="#A785FB"/>
<path d="M212.648 52.4141C212.605 51.8824 212.533 51.3077 212.447 50.7043C211.973 47.414 210.838 43.1755 208.295 38.276C208.726 35.6324 209.329 33.4484 209.99 32.4571C212.663 28.4484 214.229 27.8162 214.229 27.8162C214.229 27.8162 218.252 44.756 212.648 52.4141Z" fill="#8966F7"/>
<path d="M191.485 48.3911C191.485 48.3911 187.763 48.5922 187.189 48.7934C186.614 48.9945 184.803 50.4457 184.818 50.6181C184.832 50.7905 184.976 50.9055 185.335 50.8193C185.694 50.7474 186.815 50.2589 186.786 50.417C186.758 50.575 183.582 52.1986 183.726 52.8882C183.884 53.5779 186.082 54.3107 187.663 53.9515C189.243 53.5923 191.786 50.9055 192.045 50.8193C194.243 49.9859 191.485 48.3911 191.485 48.3911Z" fill="#FFB27D"/>
<path d="M190.781 49.7991C190.033 48.5922 190.579 48.0462 190.579 48.0462C190.579 48.0462 202.059 39.0663 202.95 38.1468C203.855 37.2416 208.022 22.7875 208.022 22.7875C208.022 22.7875 209.459 16.9398 212.821 16.2932C215.738 15.7329 217.763 17.1696 219.071 18.8651C220.637 20.8766 220.795 23.6639 219.488 25.8622C216.557 30.8048 210.651 40.6037 208.927 42.2704C205.091 45.9916 192.232 51.2072 192.232 51.2072C192.232 51.2072 191.37 50.7474 190.781 49.7991Z" fill="#A785FB"/>
<path d="M207.088 1.46553C207.131 1.37932 207.26 1.29311 207.562 1.19254C207.562 1.19254 207.275 1.09196 206.93 1.1638C206.758 0.732763 206.327 0.0143679 205.536 0C205.536 0 205.996 0.114943 206.169 0.574716C205.077 -0.114943 203.036 -0.316094 197.979 1.36495C191.298 3.59197 194.631 7.47131 195.651 7.77303C196.657 8.08913 198.525 6.09199 200.206 5.819C201.887 5.54601 202.792 7.88798 203.424 8.07476C204.056 8.26154 203.697 7.7443 204.373 7.19832C205.048 6.6667 205.421 7.91671 205.407 8.79315C205.393 9.66959 206.7 10.5029 206.7 10.5029C206.7 10.5029 206.7 10.5029 207.462 9.09488C208.223 7.68682 208.022 2.60059 207.289 1.68104C207.217 1.62357 207.16 1.53736 207.088 1.46553Z" fill="#2B478B"/>
<path d="M323.712 193.823H0.520821C0.247831 193.823 0.0179443 193.593 0.0179443 193.32V193.162C0.0179443 192.889 0.247831 192.659 0.520821 192.659H323.712C323.985 192.659 324.215 192.889 324.215 193.162V193.32C324.201 193.593 323.985 193.823 323.712 193.823Z" fill="#40404E"/>
<path d="M101.527 179.225V186.783L83.6391 179.225H101.527Z" fill="#6585FC"/>
<path d="M254.631 114.756H195.464V192.472H254.631V114.756Z" fill="#52C9CC"/>
<path d="M236.399 114.756H177.232V192.472H236.399V114.756Z" fill="#61E8F3"/>
<path d="M254.646 114.756V126.38L236.398 114.756H254.646Z" fill="#52C9CC"/>
<path d="M68.9695 57.2561C68.9695 57.2561 65.5787 47.7876 59.4005 50.1296C59.4005 50.1296 53.0211 52.7446 54.4148 58.8653C54.5298 59.3969 54.6016 59.9429 54.5872 60.4888C54.5298 62.0118 54.0556 64.5406 51.3401 64.2532C51.3401 64.2532 54.5298 69.9573 59.5298 62.644C59.9177 62.0693 60.1476 61.394 60.1763 60.7044C60.2626 58.9084 60.6936 55.302 62.8775 55.8768L67.1017 58.894L68.9695 57.2561Z" fill="#A9453D"/>
</svg>
