<svg width="38" height="35" viewBox="0 0 38 35" fill="none" xmlns="http://www.w3.org/2000/svg">
<path d="M5.56958 13.0862C5.01329 13.0862 4.457 13.2051 3.94044 13.4825C3.34442 13.7995 2.82786 14.275 2.39077 14.8298C1.95369 15.3846 1.63581 16.0186 1.3974 16.7319C1.15899 17.5245 1.00004 18.317 1.00004 19.1492C0.96031 19.9813 1.07952 20.7739 1.27819 21.5664C1.47687 22.2401 1.79475 22.8741 2.1921 23.4685C2.58945 24.0233 3.06627 24.4988 3.6623 24.8555C4.13912 25.1328 4.69541 25.2914 5.2517 25.331C5.80799 25.3706 6.36428 25.2121 6.88084 24.9347C7.47687 24.6177 7.99342 24.1422 8.43051 23.5874C8.86759 23.0326 9.18547 22.3986 9.42389 21.6853C9.6623 20.8928 9.82124 20.1002 9.82124 19.268C9.82124 18.4359 9.74177 17.6433 9.50336 16.8508C9.30468 16.1771 9.02653 15.5035 8.62918 14.9091C8.23183 14.3543 7.75501 13.8788 7.15899 13.5221C6.68216 13.2844 6.12587 13.0862 5.56958 13.0862Z" fill="#C4C4C4"/>
<path d="M13.7153 14.3147C14.2318 14.275 14.7087 14.0769 15.106 13.7599C15.6623 13.324 16.0994 12.7692 16.4173 12.1352C16.7352 11.4615 16.9736 10.7482 17.0928 10.035C17.2517 9.16316 17.2915 8.25174 17.212 7.34031C17.1325 6.42889 16.9338 5.5571 16.6557 4.72493C16.4173 4.01164 16.0597 3.37761 15.6226 2.74358C15.1855 2.1888 14.6689 1.71327 14.0332 1.35663C13.5961 1.11887 13.0795 0.999987 12.563 1.03961C12.0464 1.07924 11.5696 1.27738 11.1722 1.59439C10.5762 2.03029 10.1391 2.58507 9.82125 3.2191C9.50337 3.89276 9.26496 4.60605 9.14576 5.31933C8.98682 6.19113 8.94708 7.10255 9.02655 8.01397C9.10602 8.92539 9.3047 9.79719 9.58284 10.6294C9.82125 11.3426 10.1789 11.9767 10.616 12.6107C11.053 13.1655 11.5696 13.641 12.2054 13.9977C12.6822 14.2354 13.1987 14.3543 13.7153 14.3147Z" fill="#C4C4C4"/>
<path d="M25.6358 34.7622L22.3776 33.8508C20.1921 33.2564 17.8478 33.2564 15.6623 33.8508L12.4041 34.7622C11.0928 35.1981 9.66233 34.8811 8.66895 33.9301C7.23849 32.5431 7.19876 30.2051 8.58949 28.7785L16.9736 20.021C17.0133 19.9813 17.0133 19.9417 17.0531 19.9417C18.1656 18.8718 19.9935 18.9114 21.0663 20.021L29.4504 28.7785C30.4835 29.7692 30.8411 31.3147 30.3246 32.662C29.6094 34.5245 27.5034 35.4755 25.6358 34.7622Z" fill="#C4C4C4"/>
<path d="M32.4703 13.0862C33.0266 13.0862 33.5829 13.2051 34.0994 13.4825C34.6954 13.7995 35.212 14.275 35.6491 14.8298C36.0862 15.3846 36.404 16.0186 36.6425 16.7319C36.8809 17.5245 37.0398 18.317 37.0398 19.1492C37.0398 19.9813 36.9603 20.7739 36.7617 21.5664C36.563 22.2401 36.2848 22.9137 35.8875 23.5081C35.4901 24.0629 35.0133 24.5384 34.4173 24.8951C33.9405 25.1725 33.3842 25.331 32.8279 25.3706C32.2716 25.3706 31.7153 25.2517 31.1987 24.9743C30.6027 24.6573 30.0862 24.1818 29.6491 23.627C29.212 23.0722 28.8941 22.4382 28.6557 21.7249C28.4173 20.9324 28.2583 20.1398 28.2583 19.3077C28.2186 18.4755 28.3378 17.683 28.5365 16.8904C28.7352 16.2168 29.0133 15.5431 29.4107 14.9487C29.808 14.3939 30.2848 13.9184 30.8809 13.5618C31.3577 13.2844 31.8742 13.0862 32.4703 13.0862Z" fill="#C4C4C4"/>
<path d="M24.2847 14.3147C23.7682 14.275 23.2913 14.0769 22.894 13.7599C22.3377 13.324 21.9006 12.7692 21.5827 12.1352C21.2648 11.4615 21.0264 10.7482 20.9072 10.0349C20.7483 9.16315 20.7086 8.25173 20.788 7.34031C20.8675 6.42889 21.0662 5.55709 21.3443 4.72493C21.5827 4.01164 21.9403 3.37761 22.3774 2.74357C22.8145 2.1888 23.3311 1.71327 23.9668 1.35663C24.4437 1.07924 24.9602 0.960357 25.4768 0.999984C25.9933 1.03961 26.4701 1.23775 26.8675 1.55476C27.4238 1.99066 27.8609 2.54544 28.1788 3.17947C28.4966 3.85313 28.735 4.56642 28.8543 5.2797C29.0132 6.1515 29.0529 7.06292 28.9735 7.97434C28.894 8.88576 28.6953 9.75756 28.4172 10.5897C28.1788 11.303 27.8211 11.937 27.3841 12.5711C26.947 13.1259 26.4304 13.6014 25.7947 13.958C25.3178 14.2354 24.8013 14.3543 24.2847 14.3147Z" fill="#C4C4C4"/>
</svg>
