<svg width="36" height="41" viewBox="0 0 36 41" fill="none" xmlns="http://www.w3.org/2000/svg">
<path d="M7.41746 28.441C9.7412 28.441 11.625 26.5281 11.625 24.1684C11.625 21.8087 9.7412 19.8958 7.41746 19.8958C5.09372 19.8958 3.20996 21.8087 3.20996 24.1684C3.20996 26.5281 5.09372 28.441 7.41746 28.441Z" fill="#C4C4C4"/>
<path d="M12.4325 31.2895C11.625 30.2537 10.35 29.5632 8.9475 29.5632H5.845C3.5925 29.5632 1.7225 31.2895 1.425 33.5337L0.999999 37.2021C0.957499 37.6768 1.255 38.1084 1.7225 38.2379C3.5075 38.6263 5.42 38.8421 7.4175 38.8421C8.225 38.8421 9.0325 38.7989 9.7975 38.7558L10.18 35.4758C10.35 33.7495 11.2 32.2821 12.4325 31.2895Z" fill="#C4C4C4"/>
<path d="M28.5825 28.441C30.9062 28.441 32.79 26.5281 32.79 24.1684C32.79 21.8087 30.9062 19.8958 28.5825 19.8958C26.2588 19.8958 24.375 21.8087 24.375 24.1684C24.375 26.5281 26.2588 28.441 28.5825 28.441Z" fill="#C4C4C4"/>
<path d="M34.5749 33.5768C34.3199 31.2895 32.4074 29.5632 30.1549 29.5632H27.0524C25.6499 29.5632 24.3749 30.2105 23.5674 31.2895C24.7999 32.2821 25.6499 33.7926 25.8199 35.4758L26.2024 38.7558C26.9674 38.8421 27.7749 38.8421 28.5824 38.8421C30.5799 38.8421 32.4924 38.6263 34.2774 38.2379C34.7449 38.1516 35.0424 37.6768 34.9999 37.2021L34.5749 33.5768Z" fill="#C4C4C4"/>
<path d="M19.5726 31.7211H16.4701C14.2176 31.7211 12.3476 33.4474 12.0501 35.6916L11.6251 39.36C11.5826 39.8347 11.8801 40.3095 12.3476 40.3958C14.1326 40.7842 16.0451 41 18.0426 41C20.0401 41 21.9526 40.7842 23.7376 40.3958C24.2051 40.3095 24.5026 39.8347 24.4601 39.36L24.0351 35.6916C23.6951 33.4474 21.8251 31.7211 19.5726 31.7211Z" fill="#C4C4C4"/>
<path d="M18 30.5989C20.3237 30.5989 22.2075 28.686 22.2075 26.3263C22.2075 23.9666 20.3237 22.0537 18 22.0537C15.6762 22.0537 13.7925 23.9666 13.7925 26.3263C13.7925 28.686 15.6762 30.5989 18 30.5989Z" fill="#C4C4C4"/>
<path d="M19.53 6.47369H16.98L16.47 9.14948H19.02L19.53 6.47369Z" fill="#C4C4C4"/>
<path d="M11.4976 15.6232H12.8151V18.6874C12.8151 19.8095 14.1326 20.3705 14.9401 19.5937L19.0201 15.6232H24.5026C26.2451 15.6232 27.6901 14.1558 27.6901 12.3863V3.23684C27.6901 1.46737 26.2451 0 24.5026 0H11.4976C9.75506 0 8.31006 1.46737 8.31006 3.23684V12.3863C8.31006 14.1558 9.75506 15.6232 11.4976 15.6232ZM13.4101 9.14947H14.8976L15.4501 6.51684H14.2601C13.8351 6.51684 13.4951 6.17158 13.4951 5.74C13.4951 5.30842 13.8351 4.96316 14.2601 4.96316H15.7476L16.0451 3.49579C16.1301 3.06421 16.5126 2.80526 16.9376 2.89158C17.3626 2.97789 17.6176 3.36632 17.5326 3.79789L17.2776 4.96316H19.8276L20.1251 3.49579C20.2101 3.06421 20.5926 2.80526 21.0176 2.89158C21.4426 2.97789 21.6976 3.36632 21.6126 3.79789L21.4001 4.96316H22.5901C23.0151 4.96316 23.3551 5.30842 23.3551 5.74C23.3551 6.17158 23.0151 6.51684 22.5901 6.51684H21.1026L20.5501 9.14947H21.7401C22.1651 9.14947 22.5051 9.49474 22.5051 9.92632C22.5051 10.3579 22.1651 10.7032 21.7401 10.7032H20.2526L19.9551 12.1705C19.8701 12.5158 19.5726 12.7747 19.2326 12.7747C19.1901 12.7747 19.1476 12.7747 19.0626 12.7747C18.6376 12.6884 18.3826 12.3 18.4676 11.8684L18.7226 10.7032H16.1726L15.8751 12.1705C15.7476 12.5158 15.4501 12.7316 15.1101 12.7316C15.0676 12.7316 15.0251 12.7316 14.9401 12.7316C14.5151 12.6453 14.2601 12.2568 14.3451 11.8253L14.6001 10.66H13.4101C12.9851 10.66 12.6451 10.3147 12.6451 9.88316C12.6451 9.45158 12.9851 9.14947 13.4101 9.14947Z" fill="#C4C4C4"/>
</svg>
