<svg width="36" height="33" viewBox="0 0 36 33" fill="none" xmlns="http://www.w3.org/2000/svg">
<path d="M36 14.1687L26.1 18.8313V14.8193C28.728 13.5542 30.528 10.8795 30.528 7.77108C30.492 3.50602 27.036 0 22.752 0C19.188 0 16.164 2.42169 15.264 5.71084C14.328 2.42169 11.34 0 7.776 0C3.492 0 0 3.50602 0 7.80723C0 10.9518 1.836 13.6627 4.5 14.8916V32.0241H26.064V28.3374L36 33V14.1687ZM11.196 14.7831C13.176 13.8072 14.652 12.0361 15.264 9.86747C15.876 12.0361 17.352 13.8072 19.332 14.7831H11.196ZM22.752 2.0241C25.92 2.0241 28.476 4.59036 28.476 7.77108C28.476 10.9518 25.92 13.5181 22.752 13.5181C19.584 13.5181 17.028 10.9518 17.028 7.77108C16.992 4.62651 19.584 2.0241 22.752 2.0241ZM2.016 7.80723C2.016 4.62651 4.572 2.06024 7.74 2.06024C10.908 2.06024 13.464 4.62651 13.464 7.80723C13.464 10.988 10.908 13.5542 7.74 13.5542C4.608 13.5542 2.016 10.988 2.016 7.80723ZM7.776 10.8072C6.12 10.8072 4.752 9.46988 4.752 7.77108C4.752 6.10843 6.084 4.73494 7.776 4.73494C9.432 4.73494 10.8 6.07229 10.8 7.77108C10.764 9.46988 9.432 10.8072 7.776 10.8072ZM19.728 7.80723C19.728 6.14458 21.06 4.77108 22.752 4.77108C24.408 4.77108 25.776 6.10843 25.776 7.80723C25.776 9.46988 24.444 10.8434 22.752 10.8434C21.06 10.8072 19.728 9.46988 19.728 7.80723Z" fill="#C4C4C4"/>
</svg>
