<svg width="36" height="35" viewBox="0 0 36 35" fill="none" xmlns="http://www.w3.org/2000/svg">
<path d="M29.1526 4.44915C26.4831 1.99153 23.0933 0.55085 19.7034 0.127121C19.6187 3.81356 20.8899 7.45763 23.3475 10.2542L29.1526 4.44915Z" fill="#C4C4C4"/>
<path d="M34.873 15.2542C34.4492 11.8644 33.0086 8.51694 30.5509 5.80508L24.7458 11.6102C27.5425 14.0254 31.1442 15.339 34.873 15.2542Z" fill="#C4C4C4"/>
<path d="M21.9915 11.6525C19.1525 8.4322 17.6271 4.27966 17.7542 0C17.6695 0 17.5424 0 17.4576 0C13.2203 0 9.06778 1.48305 5.7627 4.44915L17.5 16.1441L21.9915 11.6525Z" fill="#C4C4C4"/>
<path d="M11.6526 21.9915L16.1441 17.5L4.44921 5.80508C1.39836 9.19491 -0.0423198 13.5169 5.31279e-05 17.7966C4.32209 17.6271 8.43226 19.1949 11.6526 21.9915Z" fill="#C4C4C4"/>
<path d="M34.4492 17.2034C30.339 17.2034 26.4407 15.7203 23.3475 12.9661L18.856 17.5L30.5509 29.1949C33.6017 25.8051 35.1271 21.483 35 17.2034C34.8305 17.2034 34.6187 17.2034 34.4492 17.2034Z" fill="#C4C4C4"/>
<path d="M13.0085 23.3475C15.8475 26.5678 17.373 30.7203 17.2458 35C21.5255 35.0424 25.8475 33.6017 29.2374 30.5508L17.5001 18.8559L13.0085 23.3475Z" fill="#C4C4C4"/>
<path d="M0.127197 19.7034C0.550926 23.178 1.9916 26.4831 4.44923 29.1949L10.2543 23.3475C7.45771 20.8898 3.85601 19.6186 0.127197 19.7034Z" fill="#C4C4C4"/>
<path d="M5.80505 30.5508C8.51692 33.0085 11.9067 34.4492 15.2966 34.8729C15.3813 31.1441 14.1101 27.5424 11.6101 24.7458L5.80505 30.5508Z" fill="#C4C4C4"/>
</svg>
