<svg width="40" height="33" viewBox="0 0 40 33" fill="none" xmlns="http://www.w3.org/2000/svg">
<path d="M27.5612 8.03752C28.3412 7.25097 28.3412 5.96766 27.5612 5.22251L23.9486 1.57956C23.1686 0.793018 21.8959 0.793018 21.157 1.57956L18.9812 3.77361L25.3854 10.2316L27.5612 8.03752Z" fill="#C4C4C4"/>
<path d="M2.68333 27.577L8.34859 27.0802C8.55386 27.0802 8.71807 26.956 8.88228 26.8318L10.3191 25.3829L3.91491 18.9664L2.47807 20.4153C2.35491 20.5395 2.23175 20.7464 2.23175 20.9534L1.78017 26.6662C1.73912 26.9146 1.86228 27.163 2.02649 27.3286C2.1907 27.5356 2.43702 27.6184 2.68333 27.577Z" fill="#C4C4C4"/>
<path d="M17.2408 5.5815L5.71655 17.2025L12.1318 23.6715L23.656 12.0506L17.2408 5.5815Z" fill="#C4C4C4"/>
<path d="M39.836 27.2044C39.5486 26.3765 39.0149 25.8797 38.5633 25.5485C38.1117 25.2173 37.7012 25.0104 37.3317 24.8034C36.5518 24.4722 35.8128 24.2238 35.0739 24.0582C33.637 23.6856 32.2412 23.3959 30.9275 23.1061C29.5728 22.8163 28.2591 22.5679 27.1096 22.1539C26.5349 21.947 26.0423 21.6986 25.7549 21.4916C25.6318 21.3674 25.5907 21.326 25.5907 21.326C25.5907 21.2846 25.5907 21.2432 25.5907 21.2018C25.5907 21.119 25.7549 20.8706 26.1654 20.6223C26.576 20.3739 27.1507 20.1669 27.7254 20.0013C30.1886 19.4631 33.0212 19.4217 35.6896 19.4631H35.7307C36.3054 19.4631 36.7981 19.0492 36.8802 18.4696C36.9623 17.8486 36.5107 17.2691 35.8949 17.2277C33.0212 16.8965 30.1886 16.7309 27.1507 17.2691C26.4118 17.4347 25.5907 17.6003 24.8107 18.0142C24.4002 18.2212 23.9896 18.4696 23.5791 18.8836C23.1686 19.2561 22.7991 19.7943 22.6349 20.4153C22.5118 20.705 22.5118 21.0362 22.4707 21.326C22.4707 21.6572 22.5118 22.0298 22.6349 22.3609C22.8402 23.0233 23.2507 23.5614 23.6612 23.8926C24.4412 24.5964 25.2212 24.9276 25.9602 25.2587C28.8339 26.4179 31.6254 26.7904 34.1296 27.5356C34.7044 27.7012 35.2381 27.9082 35.6896 28.0737C35.4433 28.1565 35.156 28.2393 34.8686 28.2807C32.3644 28.7775 29.6139 29.0259 26.9044 29.1915C24.1539 29.357 21.4033 29.4812 18.6528 29.5226L1.98544 29.9366C1.49281 29.9366 1.08228 30.3092 1.00018 30.8473C0.959123 31.3855 1.3286 31.8823 1.90333 31.9651C7.48649 32.5446 13.0286 32.8758 18.6118 32.9586C21.4033 33 24.1949 33 27.0275 32.8758C29.8602 32.7102 32.6518 32.586 35.6075 31.9651C36.3465 31.7995 37.1265 31.5925 37.9886 31.1785C38.4402 30.9301 38.9739 30.7232 39.5486 29.8538C39.6717 29.6882 39.836 29.3157 39.877 29.1087C39.9181 28.9431 39.9591 28.7361 39.9591 28.5291C40.0412 28.0737 39.9591 27.6184 39.836 27.2044Z" fill="#C4C4C4"/>
</svg>
