<svg width="40" height="37" viewBox="0 0 40 37" fill="none" xmlns="http://www.w3.org/2000/svg">
<path d="M32.7088 9.1356C32.7088 9.1356 27.3466 2.01696 18.2266 1.04068C14.6377 0.674582 11.5977 2.09831 11.3866 4.05085C11.3444 4.45763 11.4288 4.90509 11.64 5.27119C11.8088 5.55594 11.9777 5.84068 12.2311 6.08475H12.2733C17.0444 5.59662 23.3355 6.0034 27.9377 7.8339C27.9377 7.8339 21.14 6.77628 14.8066 7.22374C14.5955 7.22374 9.35996 7.63052 5.98218 9.46102L6.53107 11.2509C7.88218 10.4373 10.5422 9.46102 12.2733 9.01357C12.1044 9.29831 11.9777 9.66441 11.9355 9.98984C11.0488 14.3831 14.8911 16.1729 18.9866 14.7085C24.2222 12.878 27.4311 11.1288 32.7088 9.1356Z" fill="#C4C4C4"/>
<path d="M2.64661 14.7085C2.64661 14.7085 -1.06895 22.7627 2.60438 30.8169C4.03994 33.9898 6.86883 35.861 8.72661 35.0068C9.10661 34.8441 9.44438 34.5186 9.69772 34.1932C9.86661 33.9085 10.0355 33.6237 10.1199 33.2983C10.1199 33.2983 10.1199 33.2983 10.1199 33.2576C7.33327 29.5559 4.54661 24.1051 3.87105 19.3051C3.87105 19.3051 6.31994 25.5288 9.90883 30.5729C10.0355 30.7356 12.991 34.8847 16.3266 36.8373L17.6777 35.4949C16.2844 34.8034 14.0888 33.0542 12.8222 31.8339C13.1599 31.8339 13.5399 31.7525 13.8777 31.6305C18.2688 30.1661 17.931 26.0576 14.5955 23.3729C10.2466 19.9152 7.03772 18.1254 2.64661 14.7085Z" fill="#C4C4C4"/>
<path d="M22.7021 37C22.7021 37 31.7799 36.0644 37.2266 28.9458C39.3377 26.139 39.6333 22.8847 37.9022 21.7458C37.5222 21.5017 37.0999 21.3797 36.6777 21.339C36.3399 21.339 36.0021 21.339 35.6644 21.4203C35.6644 21.4203 35.6644 21.4203 35.6644 21.461C33.7221 25.6915 30.2177 30.7356 26.2488 33.6644C26.2488 33.6644 30.5977 28.539 33.3421 23.0068C33.4266 22.8441 35.6644 18.2474 35.7488 14.5051L33.8488 14.0576C33.9333 15.5627 33.4266 18.2881 33.0044 19.9559C32.8355 19.6712 32.5821 19.3864 32.2866 19.183C28.7821 16.2542 25.2355 18.5729 24.5177 22.722C23.5888 28.0508 23.5466 31.6305 22.7021 37Z" fill="#C4C4C4"/>
</svg>
