<svg width="32" height="45" viewBox="0 0 32 45" fill="none" xmlns="http://www.w3.org/2000/svg">
<path d="M23.3596 34.4H18.2355L18.0346 26.25C17.9844 25.25 18.537 24.3 19.4412 23.8C20.1445 23.45 20.8478 22.95 21.5511 22.35C23.661 20.5 24.1633 18.45 23.6107 17.05C23.2591 16.2 22.2544 15.65 19.9938 15.65C17.7834 15.65 15.9749 16 15.9749 17C15.9749 17.9 18.8886 17.6 21.099 17.6C21.4004 17.6 21.4506 18 21.1994 18.1C20.1947 18.45 18.5872 19.05 17.5322 19.8C17.4318 19.9 17.3313 19.95 17.2308 20.05C16.6782 20.5 15.8745 20.4 15.3721 19.9C13.5134 17.8 11.1523 16.8 10.0974 17.7C9.04245 18.6 9.69551 21.05 11.5542 23.2C12.1571 23.9 12.8101 24.45 13.4129 24.85C13.7144 25.05 13.9153 25.4 13.9153 25.8L13.7143 34.45H8.59033C8.08798 34.45 7.73633 34.85 7.73633 35.3V38.5C7.73633 39 8.13821 39.35 8.59033 39.35H13.5636L13.4632 44.3C13.4632 44.7 13.7646 45 14.1665 45H17.7834C18.1853 45 18.4867 44.65 18.4867 44.3L18.336 39.35H23.3093C23.8117 39.35 24.1633 38.95 24.1633 38.5V35.3C24.2136 34.8 23.8117 34.4 23.3596 34.4Z" fill="#C4C4C4"/>
<path d="M15.7739 -1.28685e-06C7.48503 0.0999987 0.602772 6.6 0.0501816 14.85C-0.401938 21.8 3.66714 28.15 10.047 30.65C10.5494 30.85 11.102 30.55 11.3029 30.05L12.0565 27.75C12.2072 27.3 12.0062 26.75 11.5541 26.6C7.23385 24.8 4.37043 20.6 4.37043 15.9C4.37043 9.4 9.74563 4.15 16.3265 4.35C22.2543 4.5 27.1271 9.15 27.5792 15C27.9811 20.1 25.0172 24.75 20.4458 26.6C19.9937 26.8 19.7425 27.3 19.9434 27.75L20.697 30.05C20.8477 30.55 21.4505 30.85 21.9528 30.65C27.9811 28.25 31.9999 22.45 31.9999 15.9C31.9497 7.05 24.6656 -0.100001 15.7739 -1.28685e-06Z" fill="#C4C4C4"/>
<path d="M20.7472 14.45C21.551 14.55 22.3547 13.4 22.5557 11.9C22.7566 10.4 22.3045 9.1 21.5007 9C19.843 8.8 19.8932 10.05 19.6923 11.55C19.4411 13.05 19.9434 14.35 20.7472 14.45Z" fill="#C4C4C4"/>
<path d="M17.733 14.25C18.5367 14.2 18.9888 12.75 18.9888 11.05C18.9888 9.85 18.7879 7.95 17.2808 7.95C15.9245 7.95 15.9747 9.45 16.0752 11.2C16.1757 12.95 16.9292 14.3 17.733 14.25Z" fill="#C4C4C4"/>
<path d="M11.4033 16.25C12.0061 16.25 12.2573 14.85 12.207 13.2C12.1066 11.55 12.1568 10.4 10.9512 10.4C9.99669 10.4 9.5948 11.85 9.64504 13.5C9.69527 15.15 10.5995 16.25 11.4033 16.25Z" fill="#C4C4C4"/>
<path d="M14.317 15.15C15.1208 15.1 15.6734 13.7 15.6232 12.05C15.5227 10.4 14.6687 9.14999 13.5133 9.29999C12.2071 9.44999 12.609 10.55 12.7095 12.2C12.7597 13.85 13.5133 15.15 14.317 15.15Z" fill="#C4C4C4"/>
</svg>
