<svg width="43" height="40" viewBox="0 0 43 40" fill="none" xmlns="http://www.w3.org/2000/svg">
<path d="M34.8378 33.9944L33.2904 34.3426L31.7873 27.5525C32.7599 27.1607 33.6441 26.4643 34.1747 25.5502C34.882 24.4185 35.0589 22.9822 34.661 21.7199L31.7431 11.8393C31.6104 11.4476 31.2126 11.1864 30.7704 11.2734L24.1831 12.6663C23.741 12.7534 23.4757 13.1451 23.5199 13.5804L25.0231 23.7656C25.1999 25.0714 25.9515 26.2902 27.101 27.0737C27.941 27.6395 28.9136 27.9442 29.9304 27.9442C30.0189 27.9442 30.0631 27.9442 30.1515 27.9442L31.6547 34.7344L30.1073 35.0826C29.6652 35.1697 29.3557 35.6049 29.4883 36.0402C29.5768 36.4319 29.9304 36.6931 30.2841 36.6931C30.3283 36.6931 30.4168 36.6931 30.461 36.6931L35.1915 35.692C35.6336 35.6049 35.9431 35.1697 35.8104 34.7344C35.7662 34.1685 35.3241 33.9074 34.8378 33.9944ZM30.4168 12.971L31.3452 16.1484L25.8631 17.3672L25.3768 14.1027L30.4168 12.971Z" fill="#C4C4C4"/>
<path d="M17.0653 3.96094L21.0442 5.5279C21.3537 5.65848 21.7074 5.48438 21.84 5.17969L22.68 3.13393C23.0337 2.21987 22.5916 1.21875 21.7074 0.827012L19.939 0.130583C19.0105 -0.217631 17.9937 0.217637 17.5958 1.08817L16.7558 3.13393C16.6232 3.48215 16.7558 3.83036 17.0653 3.96094Z" fill="#C4C4C4"/>
<path d="M8.5103 24.5242L6.04004 30.5832L10.2248 32.237L12.6951 26.178L8.5103 24.5242Z" fill="#C4C4C4"/>
<path d="M13.3957 18.5859L18.8778 16.4966V14.9732C18.8778 13.2757 19.1431 11.6216 19.6736 10.0112L20.6904 7.09486C20.602 7.09486 20.5136 7.05134 20.4694 7.00781L16.4904 5.44084C16.4462 5.39732 16.3578 5.39732 16.3136 5.35379L14.9431 8.18303C14.2357 9.70647 13.2631 11.0993 12.0694 12.3181L10.9641 13.4062L13.3957 18.5859Z" fill="#C4C4C4"/>
<path d="M13.3073 20.4141C13.2189 20.4576 13.0862 20.4576 12.9978 20.4576C12.6883 20.4576 12.3788 20.2835 12.2462 19.9788L9.72622 14.625L7.5599 16.8013C6.49885 17.8895 5.65885 19.1518 5.08411 20.5446L0.176745 32.558C-0.265361 33.6462 0.265166 34.9085 1.37043 35.3438L10.3452 38.8694C11.4504 39.3047 12.7325 38.7824 13.1746 37.6942L18.082 25.6808C18.6567 24.2879 18.922 22.7645 18.922 21.2846L18.8778 18.2377L13.3073 20.4141ZM14.5894 26.029L11.4946 33.6027C11.4062 33.8203 11.2736 33.9509 11.0525 34.038C10.9641 34.0815 10.8315 34.125 10.7431 34.125C10.6546 34.125 10.522 34.125 10.4336 34.0815L4.68622 31.8181C4.24411 31.644 4.06727 31.1652 4.24411 30.7734L7.33885 23.1998C7.42727 22.9821 7.5599 22.8516 7.78095 22.7645C8.00201 22.6775 8.22306 22.6775 8.3999 22.7645L14.1473 25.0279C14.5894 25.1585 14.7662 25.6373 14.5894 26.029Z" fill="#C4C4C4"/>
<path d="M26.3494 31.9487L24.4925 31.1216C24.3599 31.0781 24.2715 30.9475 24.183 30.817L23.343 28.9888C23.122 28.5536 22.503 28.5536 22.282 28.9888L21.442 30.8605C21.3978 30.9911 21.2651 31.0781 21.1325 31.1652L19.2757 31.9922C18.8336 32.2098 18.8336 32.8192 19.2757 33.0368L21.1325 33.8638C21.2651 33.9074 21.3536 34.0379 21.442 34.1685L22.282 35.9966C22.503 36.4319 23.122 36.4319 23.343 35.9966L24.183 34.1685C24.2273 34.0379 24.3599 33.9509 24.4925 33.8638L26.3494 33.0368C26.7915 32.7757 26.7915 32.1663 26.3494 31.9487Z" fill="#C4C4C4"/>
<path d="M27.0125 4.52679L28.8693 5.3538C29.002 5.39733 29.0904 5.52791 29.1788 5.65849L30.0188 7.48661C30.2399 7.92188 30.8588 7.92188 31.0799 7.48661L31.9199 5.65849C31.9641 5.52791 32.0967 5.44086 32.2293 5.3538L34.0862 4.52679C34.5283 4.30916 34.5283 3.69978 34.0862 3.48215L32.2293 2.65514C32.0967 2.61161 32.0083 2.48103 31.9199 2.35045L31.0799 0.522328C30.8588 0.0870601 30.2399 0.0870601 30.0188 0.522328L29.1788 2.35045C29.1346 2.48103 29.002 2.56809 28.8693 2.65514L27.0125 3.48215C26.5704 3.65626 26.5704 4.30916 27.0125 4.52679Z" fill="#C4C4C4"/>
<path d="M5.65877 6.70312L7.20614 7.39955C7.29456 7.44308 7.38298 7.53013 7.42719 7.61719L8.13456 9.14062C8.3114 9.48884 8.84193 9.48884 9.01877 9.14062L9.72614 7.61719C9.77035 7.53013 9.85877 7.44308 9.94719 7.39955L11.4946 6.70312C11.8482 6.52902 11.8482 6.00669 11.4946 5.83259L9.94719 5.13616C9.85877 5.09263 9.77035 5.00558 9.72614 4.91852L9.01877 3.39509C8.84193 3.04687 8.3114 3.04687 8.13456 3.39509L7.42719 4.91852C7.38298 5.00558 7.29456 5.09263 7.20614 5.13616L5.65877 5.83259C5.26088 6.00669 5.26088 6.52902 5.65877 6.70312Z" fill="#C4C4C4"/>
<path d="M41.7787 12.8404L40.4524 12.231C40.364 12.1875 40.2756 12.1005 40.2313 12.0134L39.6124 10.7076C39.4798 10.4029 38.9935 10.4029 38.8608 10.7076L38.2419 12.0134C38.1977 12.1005 38.1092 12.1875 38.0208 12.231L36.6945 12.8404C36.385 12.971 36.385 13.4498 36.6945 13.5804L38.0208 14.1897C38.1092 14.2333 38.1977 14.3203 38.2419 14.4074L38.8608 15.7132C38.9935 16.0179 39.4798 16.0179 39.6124 15.7132L40.2313 14.4074C40.2756 14.3203 40.364 14.2333 40.4524 14.1897L41.7787 13.5804C42.0882 13.4498 42.0882 12.971 41.7787 12.8404Z" fill="#C4C4C4"/>
</svg>
