<svg width="39" height="26" viewBox="0 0 39 26" fill="none" xmlns="http://www.w3.org/2000/svg">
<path d="M18.2338 3.44404C13.9286 1.84329 10.2818 -0.0485014 5.97663 6.0228e-06C5.06494 6.0228e-06 4.15326 0.097021 3.19092 0.291051L3.34287 22.6045C10.4338 21.7799 14.739 23.3321 18.1831 25.0784V3.44404H18.2338Z" fill="#C4C4C4"/>
<path d="M35.6065 22.6045L35.7584 0.291051C34.8468 0.097021 33.9351 6.0228e-06 33.0234 6.0228e-06C28.7182 -0.0485014 25.0714 1.84329 20.7662 3.44404V25.0784C24.2104 23.2836 28.5662 21.7313 35.6065 22.6045Z" fill="#C4C4C4"/>
<path d="M38.2909 4.60821L38.139 23.9627C38.139 24.0112 38.139 24.1082 38.139 24.1567C38.0377 24.8358 37.3792 25.2724 36.6701 25.1754C30.9974 24.3022 27.4013 24.8843 24.5143 26H39V4.31717L38.2909 4.60821Z" fill="#C4C4C4"/>
<path d="M2.32987 25.1754C2.27922 25.1754 2.17792 25.1754 2.12727 25.1754C1.41818 25.1754 0.861039 24.6418 0.861039 23.9627L0.709091 4.60821L0 4.31717V26H14.4857C11.5987 24.8843 8.0026 24.3022 2.32987 25.1754Z" fill="#C4C4C4"/>
</svg>
