<svg width="19" height="41" viewBox="0 0 19 41" fill="none" xmlns="http://www.w3.org/2000/svg">
<path d="M18.2962 2.82759C17.0999 2.82759 16.1851 1.90862 16.1851 0.706897C16.1851 0.282759 15.9036 0 15.4814 0C15.0592 0 14.7777 0.282759 14.7777 0.706897C14.7777 1.90862 13.8629 2.82759 12.6666 2.82759C12.2444 2.82759 11.9629 3.11034 11.9629 3.53448C11.9629 3.95862 12.2444 4.24138 12.6666 4.24138C13.8629 4.24138 14.7777 5.16034 14.7777 6.36207C14.7777 6.78621 15.0592 7.06897 15.4814 7.06897C15.9036 7.06897 16.1851 6.78621 16.1851 6.36207C16.1851 5.16034 17.0999 4.24138 18.2962 4.24138C18.7184 4.24138 18.9999 3.95862 18.9999 3.53448C18.9999 3.11034 18.7184 2.82759 18.2962 2.82759Z" fill="#C4C4C4"/>
<path d="M11.2593 24.0345H1.40747V26.8621H11.2593V24.0345Z" fill="#C4C4C4"/>
<path d="M10.063 6.50345C9.92229 5.16034 9.07784 3.95862 7.88155 3.46379L3.65932 1.62586C3.09636 1.41379 2.5334 1.41379 2.0408 1.76724C1.68895 1.97931 1.40747 2.47414 1.40747 2.96896V22.6207H11.189L10.063 6.50345ZM7.7408 9.18965C7.31858 9.18965 7.0371 8.9069 7.0371 8.48276C7.0371 7.35172 6.40377 6.36207 5.62969 6.36207C5.20747 6.36207 4.92599 6.07931 4.92599 5.65517C4.92599 5.23103 5.20747 4.94827 5.62969 4.94827C7.17784 4.94827 8.44451 6.50345 8.44451 8.48276C8.44451 8.9069 8.16303 9.18965 7.7408 9.18965Z" fill="#C4C4C4"/>
<path d="M0 28.2759V41H12.6667V28.2759H0ZM2.81481 38.8793C2.81481 39.3034 2.53333 39.5862 2.11111 39.5862C1.68889 39.5862 1.40741 39.3034 1.40741 38.8793V31.8103C1.40741 31.3862 1.68889 31.1034 2.11111 31.1034C2.53333 31.1034 2.81481 31.3862 2.81481 31.8103V38.8793Z" fill="#C4C4C4"/>
</svg>
