<svg width="31" height="41" viewBox="0 0 31 41" fill="none" xmlns="http://www.w3.org/2000/svg">
<path d="M29.7845 18.9463L25.4864 16.7453C24.9654 16.4863 24.5312 16.0979 24.1839 15.6232L21.6224 12.0842C20.7975 10.9621 19.495 10.2716 18.0623 10.2716H13.851C12.4618 10.2716 11.1159 10.9621 10.291 12.0842L7.7729 15.6232C7.42558 16.0979 6.99142 16.4863 6.47044 16.7453L2.17232 18.9463C1.21718 19.4211 0.739616 20.5863 1.13035 21.5789C1.60792 22.7011 2.91038 23.1758 3.99577 22.6579L8.38071 20.4137C9.4661 19.8526 10.4212 19.0326 11.1593 18.04L11.2027 17.9105V22.8305L4.42992 26.2832C3.30112 26.8442 2.78014 28.1389 3.17087 29.3474C3.5182 30.3832 4.51675 31.0737 5.60213 31.0737C5.73238 31.0737 5.90604 31.0737 6.03629 31.0305L14.4589 29.5632C15.4574 29.3905 16.456 29.3905 17.4545 29.5632L25.8771 31.0305C26.0508 31.0737 26.181 31.0737 26.3112 31.0737C27.3966 31.0737 28.3518 30.4263 28.6991 29.3905C29.1332 28.2253 28.482 26.7579 27.3532 26.1968L20.7541 22.8305V17.9105L20.8409 17.9968C21.579 18.9895 22.4907 19.8095 23.6195 20.3705L27.961 22.6579C28.2649 22.8305 28.5688 22.8737 28.9162 22.8737C29.7411 22.8737 30.5225 22.3989 30.8699 21.5358C31.2172 20.5432 30.6962 19.4642 29.7845 18.9463Z" fill="#C4C4C4"/>
<path d="M15.9783 9.06316C18.4959 9.06316 20.5369 7.0343 20.5369 4.53158C20.5369 2.02886 18.4959 0 15.9783 0C13.4606 0 11.4197 2.02886 11.4197 4.53158C11.4197 7.0343 13.4606 9.06316 15.9783 9.06316Z" fill="#C4C4C4"/>
<path d="M15.9784 41C22.788 41 28.3084 39.86 28.3084 38.4537C28.3084 37.0474 22.788 35.9074 15.9784 35.9074C9.16875 35.9074 3.64844 37.0474 3.64844 38.4537C3.64844 39.86 9.16875 41 15.9784 41Z" fill="#C4C4C4"/>
</svg>
