<svg width="45" height="31" viewBox="0 0 45 31" fill="none" xmlns="http://www.w3.org/2000/svg">
<path d="M41.5498 18.4226V17.9007C41.5498 15.7609 39.6872 13.9343 37.2556 13.4125C36.4278 5.89731 30.0641 0 22.407 0C14.7498 0 8.38613 5.89731 7.55833 13.4125C5.07494 13.9343 3.26413 15.7609 3.26413 17.9007V18.4226C1.66028 18.7357 0.418579 20.3013 0.418579 22.1279C0.418579 24.0067 1.66028 25.5202 3.26413 25.8333V26.3552C3.26413 28.9125 5.851 31 9.05872 31H10.2487V14.8215C10.3521 8.1936 15.7846 2.81818 22.407 2.81818C29.0811 2.81818 34.5652 8.29798 34.5652 15.0825V31H35.7552C38.9112 31 41.5498 28.9125 41.5498 26.3552V25.8333C43.1536 25.5202 44.3953 23.9545 44.3953 22.1279C44.3953 20.2492 43.1536 18.7357 41.5498 18.4226Z" fill="#C4C4C4"/>
<path d="M21.8895 30.5303C21.4239 30.5303 21.01 30.2172 20.9065 29.7475L17.9575 19.0488L16.8192 22.702C16.664 23.1195 16.3019 23.4327 15.8362 23.4327H12.6803C12.1111 23.4327 11.6455 22.963 11.6455 22.3889C11.6455 21.8148 12.1111 21.3451 12.6803 21.3451H15.1119L17.0779 15.0303C17.2331 14.6128 17.5953 14.2997 18.0609 14.2997C18.5266 14.2997 18.9405 14.6128 19.0439 15.0825L21.8378 25.1027L24.6833 11.899C24.7868 11.4293 25.2007 11.064 25.7181 11.064C26.1837 11.064 26.6493 11.4293 26.7011 11.899L28.5636 21.3973H32.1852C32.7543 21.3973 33.22 21.867 33.22 22.4411C33.22 23.0151 32.7543 23.4848 32.1852 23.4848H27.7358C27.2702 23.4848 26.8046 23.1195 26.7011 22.6498L25.6146 17.2222L22.9242 29.6953C22.8208 30.165 22.4069 30.4781 21.8895 30.5303C21.9412 30.5303 21.9412 30.5303 21.8895 30.5303Z" fill="#C4C4C4"/>
</svg>
