<svg width="38" height="39" viewBox="0 0 38 39" fill="none" xmlns="http://www.w3.org/2000/svg">
<path d="M10.8039 19.5411C10.183 18.5558 8.7342 18.5558 8.11329 19.5411L0.248362 31.939C-0.413947 33.0063 0.331151 34.3611 1.61438 34.3611H7.32679L13.7843 24.18L10.8039 19.5411Z" fill="#C4C4C4"/>
<path d="M37.7516 31.98L29.8867 19.5821C29.2658 18.5969 27.817 18.5969 27.1961 19.5821L24.2571 24.2211L30.7146 34.4021H36.3856C37.6688 34.4021 38.4139 33.0063 37.7516 31.98Z" fill="#C4C4C4"/>
<path d="M18.9999 12.8905C21.1261 12.8905 22.8496 11.1812 22.8496 9.07263C22.8496 6.96406 21.1261 5.25473 18.9999 5.25473C16.8738 5.25473 15.1503 6.96406 15.1503 9.07263C15.1503 11.1812 16.8738 12.8905 18.9999 12.8905Z" fill="#C4C4C4"/>
<path d="M19 3.53053C19.5795 3.53053 20.0762 3.07895 20.0762 2.46316V1.06737C20.0762 0.492632 19.6209 0 19 0C18.379 0 17.9237 0.451579 17.9237 1.06737V2.50421C17.9237 3.07895 18.4204 3.53053 19 3.53053Z" fill="#C4C4C4"/>
<path d="M13.5774 5.13157C13.7843 5.33684 14.0741 5.41894 14.3225 5.41894C14.6122 5.41894 14.8606 5.33684 15.0676 5.13157C15.4815 4.72105 15.4815 4.0642 15.0676 3.65368L14.0327 2.66841C13.6188 2.25789 12.9565 2.25789 12.5425 2.66841C12.1286 3.07894 12.1286 3.73578 12.5425 4.14631L13.5774 5.13157Z" fill="#C4C4C4"/>
<path d="M10.9281 10.099H12.3769C12.9564 10.099 13.4531 9.64738 13.4531 9.03159C13.4531 8.45685 12.9978 7.96422 12.3769 7.96422H10.9281C10.3485 7.96422 9.85181 8.4158 9.85181 9.03159C9.85181 9.64738 10.3485 10.099 10.9281 10.099Z" fill="#C4C4C4"/>
<path d="M13.5774 12.9726L12.5425 13.9989C12.1286 14.4095 12.1286 15.0663 12.5425 15.4768C12.7495 15.6821 13.0392 15.7642 13.2876 15.7642C13.5774 15.7642 13.8257 15.6821 14.0327 15.4768L15.0676 14.4505C15.4815 14.04 15.4815 13.3832 15.0676 12.9726C14.6536 12.5621 13.9913 12.5621 13.5774 12.9726Z" fill="#C4C4C4"/>
<path d="M17.9237 15.6411V17.0779C17.9237 17.6526 18.379 18.1453 19 18.1453C19.6209 18.1453 20.0762 17.6937 20.0762 17.0779V15.6411C20.0762 15.0663 19.6209 14.5737 19 14.5737C18.379 14.5737 17.9237 15.0253 17.9237 15.6411Z" fill="#C4C4C4"/>
<path d="M24.4227 12.9726C24.0088 12.5621 23.3465 12.5621 22.9325 12.9726C22.5186 13.3832 22.5186 14.04 22.9325 14.4505L23.9674 15.4768C24.1744 15.6821 24.4641 15.7642 24.7125 15.7642C25.0022 15.7642 25.2506 15.6821 25.4576 15.4768C25.8715 15.0663 25.8715 14.4095 25.4576 13.9989L24.4227 12.9726Z" fill="#C4C4C4"/>
<path d="M24.5469 9.07263C24.5469 9.64737 25.0022 10.14 25.6231 10.14H27.0719C27.6514 10.14 28.1482 9.68842 28.1482 9.07263C28.1482 8.4979 27.6928 8.00526 27.0719 8.00526H25.6231C25.0436 8.00526 24.5469 8.45684 24.5469 9.07263Z" fill="#C4C4C4"/>
<path d="M23.6776 5.45999C23.9674 5.45999 24.2158 5.37789 24.4227 5.17262L25.4576 4.14631C25.8715 3.73578 25.8715 3.07894 25.4576 2.66841C25.0436 2.25789 24.3813 2.25789 23.9674 2.66841L22.9325 3.69473C22.5186 4.10526 22.5186 4.7621 22.9325 5.17262C23.1395 5.33684 23.4293 5.45999 23.6776 5.45999Z" fill="#C4C4C4"/>
<path d="M20.4902 22.2095C19.7865 21.1011 18.2135 21.1011 17.5098 22.2095L8.56867 36.3316C7.82357 37.4811 8.69285 39 10.0589 39H27.9412C29.3072 39 30.1765 37.4811 29.4314 36.3316L20.4902 22.2095Z" fill="#C4C4C4"/>
</svg>
