<svg width="39" height="38" viewBox="0 0 39 38" fill="none" xmlns="http://www.w3.org/2000/svg">
<path d="M25.6596 11.1734C25.8653 11.2773 26.0709 11.2773 26.2766 11.2254C26.3795 11.1734 28.6934 10.3939 29.7732 8.41919C30.8531 6.44447 30.1846 4.00205 30.1332 3.89812C30.0818 3.69026 29.9275 3.53436 29.7732 3.43043C29.5676 3.32649 29.3619 3.32649 29.1562 3.37846C29.0533 3.43043 26.7394 4.20992 25.6596 6.18464C25.351 6.75627 25.1968 7.37986 25.0939 8.05543C24.9911 8.93885 25.0425 9.82228 25.2996 10.7057C25.2996 10.9136 25.4539 11.0695 25.6596 11.1734ZM37.2807 15.5905C36.5094 13.6678 34.3497 11.6411 32.1386 11.5372C31.2644 11.5372 30.3903 11.6931 29.5161 12.0049L29.1048 12.1088C28.8477 12.1608 28.5906 12.2647 28.3335 12.3686C27.4079 12.6804 26.7908 12.8883 25.9681 12.6285C25.5053 12.4726 25.0425 12.2647 24.5797 12.0049C24.374 11.9009 24.1169 11.745 23.8598 11.6411C23.1914 11.3293 22.4201 11.1214 21.7002 11.0695H21.2888C20.6717 11.0695 20.0547 11.1734 19.4376 11.3293C19.849 12.0049 19.9004 12.8363 19.5919 13.5639C19.1805 14.4473 18.5635 15.2268 17.895 15.9023C18.1007 15.9543 18.255 16.0063 18.3578 16.0582H18.4092H18.4607C19.6433 16.5779 20.1575 17.929 19.6948 19.1242C19.6948 19.1762 19.6948 19.1762 19.6433 19.2282C19.232 20.1116 18.6149 20.8911 17.9464 21.5667C18.1521 21.6186 18.3064 21.6706 18.4092 21.7226H18.4607H18.5121C19.6948 22.2422 20.209 23.5933 19.7462 24.7886C19.7462 24.8405 19.7462 24.8405 19.6948 24.8925C19.1291 26.0877 18.255 27.1271 17.1237 27.8546C17.7408 29.1537 18.5121 30.4009 19.4376 31.4922C20.0547 32.2717 20.9803 33.2071 22.163 33.4669C22.3172 33.5189 22.5229 33.5189 22.6772 33.5189C23.4485 33.4669 24.1684 33.311 24.8368 32.9473C25.351 32.6875 25.9167 32.5316 26.4823 32.4796C26.8937 32.5316 27.2536 32.6355 27.665 32.7914C28.1278 32.9473 28.5906 33.1032 29.1048 33.1551C30.4931 33.311 31.8815 32.6355 33.3213 31.2324C35.8409 28.5821 37.4349 25.2043 37.8977 21.5667C38.1548 19.5919 38.0006 17.5133 37.2807 15.5905ZM11.7759 35.4936C11.416 35.1818 10.2847 34.1425 10.0791 33.2591C9.87337 31.908 9.82195 30.5568 9.87337 29.2577V11.0175C9.87337 10.5498 9.51343 10.186 9.05064 10.1341C8.58785 10.1341 8.22791 10.4978 8.17649 10.9655V11.0175V29.2057C8.17649 29.3096 8.02222 32.2198 8.38217 33.6748C8.79354 35.2338 10.4904 36.6889 10.6961 36.8448C11.0561 37.1566 11.5703 37.0526 11.8788 36.6889C12.2387 36.3251 12.1359 35.8054 11.7759 35.4936ZM4.2685 23.1776C3.0344 22.7619 1.64604 22.8139 0.411939 23.3335C0.257677 23.3855 0.103414 23.5414 0.0519934 23.6973C0.000572526 23.8532 0.000572526 24.061 0.0519934 24.2169C0.617623 25.4122 1.59462 26.3995 2.7773 26.9192C3.29151 27.1271 3.85714 27.231 4.42276 27.231C5.19408 27.231 5.91397 27.0751 6.63386 26.8153C6.78812 26.7633 6.94239 26.6074 6.99381 26.4515C7.04523 26.2956 7.04523 26.0877 6.99381 25.9318C6.42818 24.6846 5.45118 23.6973 4.2685 23.1776ZM18.1007 23.6453C18.0493 23.4894 17.895 23.3335 17.7408 23.2815C16.5067 22.8139 15.1697 22.7619 13.8842 23.1257C12.7015 23.6973 11.7245 24.6327 11.1589 25.8279C11.0046 26.1917 11.1589 26.5554 11.4674 26.7113C11.4674 26.7113 11.4674 26.7113 11.5188 26.7113C12.2387 26.9712 12.9586 27.1271 13.7299 27.1271C14.2956 27.1271 14.8612 27.0231 15.3754 26.8153C16.5581 26.2436 17.5351 25.3082 18.1007 24.113C18.1521 24.0091 18.1521 23.8532 18.1007 23.6453ZM4.2685 17.4613C3.0344 17.0456 1.64604 17.0976 0.411939 17.6172C0.257677 17.6692 0.103414 17.8251 0.0519934 17.981C0.000572526 18.1369 0.000572526 18.3448 0.0519934 18.5007C0.617623 19.6959 1.59462 20.6832 2.7773 21.2029C3.29151 21.4108 3.85714 21.5147 4.42276 21.5147C5.19408 21.5147 5.91397 21.3588 6.63386 21.099C6.78812 21.047 6.94239 20.8911 6.99381 20.7352C7.04523 20.5793 7.04523 20.3714 6.99381 20.2155C6.42818 19.0203 5.45118 18.033 4.2685 17.4613ZM15.8896 20.995C15.8382 20.995 15.8382 20.995 15.8896 20.995C15.8382 20.995 15.8382 20.995 15.8896 20.995ZM18.1007 18.5526C18.2035 18.3967 18.2035 18.1889 18.1007 18.033C18.0493 17.8771 17.895 17.7212 17.7408 17.6692C16.5067 17.2015 15.1697 17.1495 13.8842 17.5133C12.7015 18.0849 11.7245 19.0203 11.1589 20.2155C11.0046 20.5793 11.1589 20.9431 11.4674 21.099C11.4674 21.099 11.4674 21.099 11.5188 21.099C12.2387 21.3588 12.9586 21.5147 13.7299 21.5147C14.2956 21.5147 14.8612 21.4108 15.3754 21.2029C15.5297 21.1509 15.7353 21.047 15.8896 20.9431C16.8152 20.4234 17.5865 19.54 18.1007 18.5526ZM9.05064 7.53576C9.25632 7.53576 9.41059 7.4838 9.51343 7.3279C10.0276 6.75627 10.439 6.08071 10.6961 5.40514C10.9018 4.88548 11.0046 4.31385 11.0046 3.79419C10.9018 2.44307 10.3876 1.19587 9.46201 0.208515C9.2049 -0.0513165 8.79354 -0.0513165 8.53643 0.208515C7.66228 1.19587 7.09665 2.44307 7.04523 3.79419C7.14807 5.14531 7.66228 6.3925 8.58785 7.37986C8.69069 7.4838 8.84496 7.53576 9.05064 7.53576ZM4.2685 11.797C2.98298 11.3813 1.64604 11.4332 0.411939 11.9529C0.257677 12.0049 0.103414 12.1608 0.0519934 12.3167C0.000572526 12.4726 0.000572526 12.6804 0.0519934 12.8363C0.617623 14.0316 1.59462 15.0189 2.7773 15.5386C3.29151 15.7464 3.85714 15.8504 4.42276 15.8504C5.19408 15.8504 5.91397 15.6945 6.63386 15.4346C6.78812 15.3827 6.94239 15.2268 6.99381 15.0709C7.04523 14.915 7.04523 14.7071 6.99381 14.5512C6.42818 13.356 5.45118 12.3686 4.2685 11.797ZM5.39976 6.34054C4.2685 5.66498 2.93156 5.40515 1.59462 5.61301C1.23467 5.66498 0.977568 6.02874 1.08041 6.3925C1.38894 7.69166 2.10883 8.83492 3.18866 9.66638C3.65145 9.97818 4.16566 10.186 4.73129 10.29C5.45118 10.4459 6.22249 10.4978 6.99381 10.3419C7.35375 10.29 7.61086 9.92621 7.55944 9.56245C7.55944 9.56245 7.55944 9.56245 7.55944 9.51048C7.19949 8.31526 6.4796 7.12003 5.39976 6.34054ZM10.8504 10.1341C10.9532 10.29 11.1075 10.3939 11.3132 10.4459C12.0845 10.5498 12.8044 10.5498 13.5757 10.3939C14.1413 10.29 14.6555 10.0821 15.1183 9.77031C16.1981 8.93885 16.918 7.79559 17.2266 6.49644C17.3294 6.13267 17.0723 5.76891 16.7123 5.66498C15.4268 5.45711 14.0899 5.71694 12.9072 6.3925C11.8788 7.22397 11.1075 8.36722 10.7989 9.66638C10.6961 9.77031 10.7475 9.97818 10.8504 10.1341ZM15.8896 15.3307C15.8382 15.3307 15.8382 15.3307 15.8896 15.3307V15.3307ZM13.8842 11.797C12.7015 12.3686 11.7245 13.304 11.1589 14.4992C11.0046 14.863 11.1589 15.2268 11.4674 15.3827C11.4674 15.3827 11.4674 15.3827 11.5188 15.3827C12.2387 15.6425 12.9586 15.7984 13.7299 15.7984C14.2956 15.7984 14.8612 15.6945 15.3754 15.4866C15.5297 15.4346 15.7353 15.3307 15.8896 15.2268C16.8666 14.6551 17.6379 13.7717 18.1521 12.7324C18.255 12.5765 18.255 12.3686 18.1521 12.2127C18.1007 12.0568 17.9464 11.9009 17.7922 11.849C16.5067 11.4332 15.1697 11.3813 13.8842 11.797Z" fill="#C4C4C4"/>
</svg>
