<svg width="41" height="34" viewBox="0 0 41 34" fill="none" xmlns="http://www.w3.org/2000/svg">
<path d="M30.088 0.0430897C24.0436 0.609756 19.9992 5.18668 19.9992 5.18668C19.9992 5.18668 15.9547 0.609756 9.91026 0.0430897C3.86582 -0.567167 -2.40085 5.97129 0.932484 15.1687C4.26582 24.4098 19.9992 33.9995 19.9992 33.9995C19.9992 33.9995 35.7769 24.4098 39.1103 15.1687C42.4436 5.97129 36.1769 -0.567167 30.088 0.0430897ZM27.8658 18.2636C27.8658 18.8303 27.3769 19.3098 26.7992 19.3098H22.3103V23.7123C22.3103 24.279 21.8214 24.7585 21.2436 24.7585H18.7103C18.1325 24.7585 17.6436 24.279 17.6436 23.7123V19.2662H13.1992C12.6214 19.2662 12.1325 18.7867 12.1325 18.22V15.7354C12.1325 15.1687 12.6214 14.6892 13.1992 14.6892H17.688V10.3303C17.688 9.7636 18.1769 9.28411 18.7547 9.28411H21.288C21.8658 9.28411 22.3547 9.7636 22.3547 10.3303V14.7328H26.8436C27.4214 14.7328 27.9103 15.2123 27.9103 15.779L27.8658 18.2636Z" fill="#C4C4C4"/>
</svg>
