<svg width="27" height="26" viewBox="0 0 27 26" fill="none" xmlns="http://www.w3.org/2000/svg">
<path d="M13.4664 0L0.368806 11.1543C-0.0766539 11.5325 -0.125546 12.193 0.260157 12.6298C0.662157 13.0826 1.35751 13.1305 1.81927 12.7363L2.28645 12.3368V22.8039C2.28645 24.5671 3.74235 26 5.54591 26H11.6248V15.5648H15.4221V25.9947H21.3923C23.1905 25.9947 24.6518 24.5671 24.6518 22.7986V12.3421L25.1353 12.7523C25.5862 13.1358 26.2761 13.0879 26.6672 12.6458C27.0583 12.2036 27.0095 11.5271 26.5586 11.1436L13.4664 0ZM22.4788 22.8039C22.4788 23.3899 21.9953 23.8693 21.3923 23.8693H17.595V13.4395H9.45183V23.8693H5.54048C4.94291 23.8693 4.454 23.3952 4.454 22.8039V10.4938L13.4664 2.82319L22.4788 10.4938V22.8039Z" fill="#40404E"/>
</svg>
