<svg width="33" height="24" viewBox="0 0 33 24" fill="none" xmlns="http://www.w3.org/2000/svg">
<path d="M26.0777 14.0076V3.05319C26.0777 1.36931 24.6469 0 22.8873 0H3.19043C1.43086 0 0 1.36931 0 3.05319V14.0015C0 15.6854 1.43086 17.0547 3.19043 17.0547H6.05859L6.1166 19.8118C6.13594 20.6383 7.12852 21.1009 7.82461 20.6013L12.7488 17.0485H22.8873C24.6469 17.0608 26.0777 15.6915 26.0777 14.0076ZM12.3943 15.0254C12.1623 15.0254 11.9367 15.0994 11.7562 15.2289L8.21133 17.7887L8.17266 16.0246C8.15977 15.4695 7.68926 15.0254 7.10918 15.0254H3.19043C2.60391 15.0254 2.12695 14.5689 2.12695 14.0076V3.05319C2.12695 2.49189 2.60391 2.03546 3.19043 2.03546H22.8809C23.4674 2.03546 23.9443 2.49189 23.9443 3.05319V14.0015C23.9443 14.5628 23.4674 15.0192 22.8809 15.0192L12.3943 15.0254ZM33 9.42478V17.8257C33 19.5095 31.5691 20.8789 29.8096 20.8789H26.9414L26.8834 23.0068C26.8705 23.562 26.3936 23.9999 25.8199 23.9999C25.3945 23.9999 25.633 24.0677 20.3092 20.8789H15.443C14.8564 20.8789 14.3795 20.4224 14.3795 19.8611C14.3795 19.2998 14.8564 18.8434 15.443 18.8434C21.0891 18.8434 20.8248 18.7879 21.1793 18.9976L24.8016 21.1688L24.8402 19.8365C24.8531 19.2813 25.3301 18.8434 25.9037 18.8434H29.8096C30.3961 18.8434 30.873 18.387 30.873 17.8257V9.42478C30.873 8.86349 30.3961 8.40705 29.8096 8.40705C29.223 8.40705 28.7461 7.95062 28.7461 7.38933C28.7461 6.82803 29.223 6.3716 29.8096 6.3716C31.5691 6.36543 33 7.7409 33 9.42478ZM19.6904 6.68617C19.6904 7.24746 19.2135 7.7039 18.627 7.7039H7.45078C6.86426 7.7039 6.3873 7.24746 6.3873 6.68617C6.3873 6.12487 6.86426 5.66844 7.45078 5.66844H18.627C19.2199 5.66844 19.6904 6.12487 19.6904 6.68617ZM17.7633 11.1395C17.7633 11.7008 17.2863 12.1572 16.6998 12.1572H9.37793C8.79141 12.1572 8.31445 11.7008 8.31445 11.1395C8.31445 10.5782 8.79141 10.1218 9.37793 10.1218H16.6934C17.2863 10.1218 17.7633 10.5782 17.7633 11.1395Z" fill="#40404E"/>
</svg>
