<svg width="25" height="25" viewBox="0 0 25 25" fill="none" xmlns="http://www.w3.org/2000/svg">
<path d="M12.5 0C5.60547 0 0 5.60547 0 12.5C0 19.3945 5.60547 25 12.5 25C19.3945 25 25 19.3945 25 12.5C25 5.60547 19.3945 0 12.5 0ZM12.5 23.2129C6.5918 23.2129 1.78711 18.4082 1.78711 12.5C1.78711 6.5918 6.5918 1.78711 12.5 1.78711C18.4082 1.78711 23.2129 6.5918 23.2129 12.5C23.2129 18.4082 18.4082 23.2129 12.5 23.2129Z" fill="#40404E"/>
<path d="M12.5 6.54785C12.0068 6.54785 11.6064 6.94824 11.6064 7.44141V17.5586C11.6064 18.0518 12.0068 18.4521 12.5 18.4521C12.9932 18.4521 13.3936 18.0518 13.3936 17.5586V7.44141C13.3936 6.94824 12.9932 6.54785 12.5 6.54785Z" fill="#40404E"/>
<path d="M17.5586 11.6064H7.44141C6.94824 11.6064 6.54785 12.0068 6.54785 12.5C6.54785 12.9932 6.94824 13.3936 7.44141 13.3936H17.5586C18.0518 13.3936 18.4521 12.9932 18.4521 12.5C18.4521 12.0068 18.0518 11.6064 17.5586 11.6064Z" fill="#40404E"/>
</svg>
