<svg width="26" height="25" viewBox="0 0 26 25" fill="none" xmlns="http://www.w3.org/2000/svg">
<path d="M3.6671 15.1762C5.05386 13.7895 6.7043 12.7738 8.50611 12.1634C6.84102 10.9329 5.76188 8.96022 5.76188 6.73848C5.76188 3.02255 8.78932 0 12.5052 0C16.2212 0 19.2486 3.02255 19.2486 6.74336C19.2486 8.96511 18.1695 10.9378 16.5044 12.1683C18.3062 12.7738 19.9615 13.7943 21.3434 15.1811C23.7067 17.5445 25.0056 20.6793 25.0056 24.0193C25.0056 24.5613 24.5661 25.0007 24.0193 25.0007H0.986355C0.444347 25.0007 0 24.5613 0 24.0144C0.00488281 20.6793 1.30375 17.5396 3.6671 15.1762ZM17.2808 6.74336C17.2808 4.11145 15.1372 1.96783 12.5052 1.96783C9.87333 1.96783 7.72972 4.11145 7.72972 6.74336C7.72972 9.37527 9.87333 11.5189 12.5052 11.5189C15.1372 11.514 17.2808 9.37527 17.2808 6.74336ZM22.9938 23.0329C22.4958 17.6861 17.979 13.4867 12.5052 13.4867C7.03145 13.4867 2.51472 17.6861 2.01666 23.0329H22.9938Z" fill="#40404E"/>
</svg>
